<svg data-v-fde0c5aa="" xmlns="http://www.w3.org/2000/svg" viewBox="0 0 300 300" class="iconAbove"><!----><defs data-v-fde0c5aa=""><linearGradient data-v-fde0c5aa="" gradientTransform="rotate(25)" id="b6ed8866-2bf9-4c53-b48b-d5c0f4e0733a" x1="0%" y1="0%" x2="100%" y2="0%"><stop data-v-fde0c5aa="" offset="0%" stop-color="#0D7CE9" stop-opacity="1"></stop><stop data-v-fde0c5aa="" offset="100%" stop-color="#15CFF1" stop-opacity="1"></stop></linearGradient></defs><rect data-v-fde0c5aa="" fill="url(#b6ed8866-2bf9-4c53-b48b-d5c0f4e0733a)" x="0" y="0" width="300px" height="300px" class="logo-background-square"></rect><defs data-v-fde0c5aa=""><!----></defs><g data-v-fde0c5aa="" id="616dce39-06b5-4dec-a164-8a04bdec16ab" fill="#ffffff" transform="matrix(3.717471989192746,0,0,3.717471989192746,20.929367997298186,162.49442388255662)"><path d="M2.73 4.13L2.73 4.13L5.71 4.16L7.01 4.13L7.01 4.13Q7.04 4.44 7.04 4.79L7.04 4.79L7.04 4.79Q7.04 5.14 6.90 5.27L6.90 5.27L6.90 5.27Q6.75 5.40 6.36 5.40L6.36 5.40L6.36 5.40Q5.98 5.40 5.74 5.39L5.74 5.39L5.74 5.39Q5.21 10.86 4.69 12.29L4.69 12.29L4.69 12.29Q4.24 13.55 3.47 13.97L3.47 13.97L3.47 13.97Q3.00 14.24 2.33 14.24L2.33 14.24L2.33 14.24Q1.67 14.24 0.92 13.85L0.92 13.85L0.92 13.85Q0.18 13.47-0.25 12.95L-0.25 12.95L0.25 12.24L0.25 12.24Q0.42 12.36 0.78 12.54L0.78 12.54L0.78 12.54Q1.13 12.71 1.39 12.71L1.39 12.71L1.39 12.71Q1.65 12.71 1.88 12.43L1.88 12.43L1.88 12.43Q2.38 11.77 2.76 8.88L2.76 8.88L2.76 8.88Q3.02 6.89 3.02 5.53L3.02 5.53L3.02 5.29L3.02 5.29Q2.06 5.32 1.57 5.47L1.57 5.47L1.57 5.47Q1.37 4.89 1.34 4.28L1.34 4.28L1.34 4.28Q1.65 4.13 2.73 4.13ZM13.37 8.39L13.37 8.39Q13.08 9.30 12.87 10.55L12.87 10.55L12.87 10.55Q12.66 11.80 12.66 12.30L12.66 12.30L12.66 12.30Q12.66 12.80 12.81 12.80L12.81 12.80L13.51 12.60L13.76 13.30L13.76 13.30Q13.31 13.65 12.62 13.94L12.62 13.94L12.62 13.94Q11.93 14.22 11.40 14.22L11.40 14.22L11.40 14.22Q10.49 14.22 10.25 13.44L10.25 13.44L10.25 13.44Q9.14 14.22 8.29 14.22L8.29 14.22L8.29 14.22Q7.45 14.22 6.99 13.61L6.99 13.61L6.99 13.61Q6.52 12.99 6.52 11.84L6.52 11.84L6.52 11.84Q6.52 10.26 7.34 9.06L7.34 9.06L7.34 9.06Q8.15 7.85 9.48 7.85L9.48 7.85L9.48 7.85Q10.21 7.85 10.96 8.26L10.96 8.26L10.96 8.26Q11.07 8.01 11.14 7.90L11.14 7.90L11.14 7.90Q12.15 7.90 13.37 8.39L13.37 8.39ZM9.16 11.67L9.16 11.67L9.16 11.67Q9.16 12.38 9.25 12.56L9.25 12.56L9.25 12.56Q9.35 12.74 9.62 12.74L9.62 12.74L9.62 12.74Q9.88 12.74 10.14 12.53L10.14 12.53L10.14 12.53Q10.19 10.91 10.67 9.13L10.67 9.13L10.67 9.13Q10.46 9.00 10.19 9.00L10.19 9.00L10.19 9.00Q9.91 9.00 9.70 9.31L9.70 9.31L9.70 9.31Q9.48 9.62 9.37 10.08L9.37 10.08L9.37 10.08Q9.16 10.96 9.16 11.67ZM14.28 14.14L14.28 14.14L14.04 14.14L14.04 14.14Q14.04 13.27 14.44 11.51L14.44 11.51L14.44 11.51Q14.84 9.74 14.84 9.48L14.84 9.48L14.84 9.48Q14.84 9.21 14.71 8.96L14.71 8.96L14.71 8.96Q14.59 8.71 14.46 8.58L14.46 8.58L14.34 8.46L14.36 8.25L14.36 8.25Q15.19 7.98 17.25 7.98L17.25 7.98L17.25 7.98Q17.39 8.30 17.44 8.65L17.44 8.65L17.44 8.65Q18.72 7.87 19.59 7.87L19.59 7.87L19.59 7.87Q20.17 7.87 20.51 8.25L20.51 8.25L20.51 8.25Q20.85 8.64 20.85 9.18L20.85 9.18L20.85 9.18Q20.85 9.72 20.54 10.91L20.54 10.91L20.54 10.91Q20.23 12.10 20.23 12.45L20.23 12.45L20.23 12.45Q20.23 12.81 20.33 12.81L20.33 12.81L21.07 12.61L21.32 13.31L21.32 13.31Q20.87 13.65 20.15 13.94L20.15 13.94L20.15 13.94Q19.43 14.22 18.83 14.22L18.83 14.22L18.83 14.22Q17.64 14.22 17.64 12.99L17.64 12.99L17.64 12.99Q17.64 12.46 17.93 11.26L17.93 11.26L17.93 11.26Q18.23 10.05 18.23 9.75L18.23 9.75L18.23 9.75Q18.23 9.45 18.03 9.45L18.03 9.45L18.03 9.45Q17.78 9.45 17.36 9.73L17.36 9.73L17.36 9.73Q17.30 9.98 17.08 10.95L17.08 10.95L17.08 10.95Q16.63 12.98 16.63 13.87L16.63 13.87L16.63 13.87Q15.95 14.14 14.28 14.14ZM22.04 14.14L22.04 14.14L21.80 14.14L21.80 14.14Q21.80 13.27 22.20 11.51L22.20 11.51L22.20 11.51Q22.60 9.74 22.60 9.48L22.60 9.48L22.60 9.48Q22.60 9.21 22.47 8.96L22.47 8.96L22.47 8.96Q22.34 8.71 22.22 8.58L22.22 8.58L22.09 8.46L22.12 8.25L22.12 8.25Q22.95 7.98 25.00 7.98L25.00 7.98L25.00 7.98Q25.14 8.30 25.20 8.65L25.20 8.65L25.20 8.65Q26.47 7.87 27.34 7.87L27.34 7.87L27.34 7.87Q27.93 7.87 28.27 8.25L28.27 8.25L28.27 8.25Q28.60 8.64 28.60 9.18L28.60 9.18L28.60 9.18Q28.60 9.72 28.29 10.91L28.29 10.91L28.29 10.91Q27.99 12.10 27.99 12.45L27.99 12.45L27.99 12.45Q27.99 12.81 28.08 12.81L28.08 12.81L28.83 12.61L29.08 13.31L29.08 13.31Q28.63 13.65 27.91 13.94L27.91 13.94L27.91 13.94Q27.19 14.22 26.59 14.22L26.59 14.22L26.59 14.22Q25.40 14.22 25.40 12.99L25.40 12.99L25.40 12.99Q25.40 12.46 25.69 11.26L25.69 11.26L25.69 11.26Q25.98 10.05 25.98 9.75L25.98 9.75L25.98 9.75Q25.98 9.45 25.79 9.45L25.79 9.45L25.79 9.45Q25.54 9.45 25.12 9.73L25.12 9.73L25.12 9.73Q25.06 9.98 24.84 10.95L24.84 10.95L24.84 10.95Q24.39 12.98 24.39 13.87L24.39 13.87L24.39 13.87Q23.70 14.14 22.04 14.14ZM29.55 12.92L29.55 12.92Q29.55 12.33 29.93 10.99L29.93 10.99L29.93 10.99Q30.30 9.65 30.30 9.34L30.30 9.34L30.30 9.34Q30.30 9.03 29.79 8.44L29.79 8.44L29.82 8.23L29.82 8.23Q31.09 7.95 32.80 7.95L32.80 7.95L32.80 7.95Q32.91 8.19 32.91 8.71L32.91 8.71L32.91 8.71Q32.91 9.23 32.53 10.67L32.53 10.67L32.53 10.67Q32.14 12.11 32.14 12.38L32.14 12.38L32.14 12.38Q32.14 12.74 32.49 12.74L32.49 12.74L32.49 12.74Q32.73 12.74 33.10 12.56L33.10 12.56L33.10 12.56Q33.14 12.33 33.35 11.38L33.35 11.38L33.35 11.38Q33.84 9.27 33.84 8.22L33.84 8.22L33.84 8.22Q34.48 7.94 36.04 7.94L36.04 7.94L36.41 7.94L36.41 7.94Q36.41 8.57 36.04 10.40L36.04 10.40L36.04 10.40Q35.67 12.24 35.66 12.52L35.66 12.52L35.66 12.52Q35.66 12.80 35.78 12.80L35.78 12.80L36.47 12.61L36.72 13.31L36.72 13.31Q36.32 13.64 35.55 13.93L35.55 13.93L35.55 13.93Q34.78 14.22 34.19 14.22L34.19 14.22L34.19 14.22Q33.32 14.22 33.11 13.52L33.11 13.52L33.11 13.52Q31.95 14.22 30.88 14.22L30.88 14.22L30.88 14.22Q29.55 14.22 29.55 12.92L29.55 12.92ZM41.80 12.17L41.80 12.17L41.80 12.17Q41.80 13.03 41.00 13.63L41.00 13.63L41.00 13.63Q40.19 14.22 39.12 14.22L39.12 14.22L39.12 14.22Q38.04 14.22 37.34 13.86L37.34 13.86L37.34 13.86Q36.65 13.50 36.65 13.17L36.65 13.17L36.65 13.17Q36.65 12.84 37.08 12.33L37.08 12.33L37.08 12.33Q37.51 11.82 37.95 11.73L37.95 11.73L37.95 11.73Q38.60 12.08 39.12 13.29L39.12 13.29L39.12 13.29Q39.52 13.29 39.52 13.02L39.52 13.02L39.52 13.02Q39.52 12.82 39.41 12.66L39.41 12.66L39.41 12.66Q39.30 12.49 39.24 12.39L39.24 12.39L39.24 12.39Q39.19 12.29 39.05 12.12L39.05 12.12L39.05 12.12Q38.91 11.94 38.84 11.86L38.84 11.86L38.84 11.86Q38.49 11.44 38.21 11.09L38.21 11.09L38.21 11.09Q37.53 10.25 37.53 9.61L37.53 9.61L37.53 9.61Q37.53 8.97 37.94 8.57L37.94 8.57L37.94 8.57Q38.64 7.85 40.00 7.85L40.00 7.85L40.00 7.85Q40.85 7.85 41.36 8.18L41.36 8.18L41.36 8.18Q41.86 8.51 41.86 9.16L41.86 9.16L41.86 9.16Q41.86 9.81 41.09 10.65L41.09 10.65L41.09 10.65Q41.80 11.48 41.80 12.17ZM40.87 9.60L40.87 9.60L40.87 9.60Q41.03 9.34 41.03 9.13L41.03 9.13L41.03 9.13Q41.03 8.92 40.85 8.81L40.85 8.81L40.85 8.81Q40.67 8.69 40.42 8.69L40.42 8.69L40.42 8.69Q40.17 8.69 40.03 8.81L40.03 8.81L40.03 8.81Q39.90 8.93 39.90 9.13L39.90 9.13L39.90 9.13Q39.90 9.32 40.50 10.00L40.50 10.00L40.50 10.00Q40.70 9.86 40.87 9.60ZM49.59 14.22L49.59 14.22L49.59 14.22Q48.65 14.22 47.82 13.86L47.82 13.86L47.82 13.86Q47.11 14.13 46.29 14.13L46.29 14.13L46.29 14.13Q45.47 14.13 45.42 14.11L45.42 14.11L45.42 14.11Q45.42 13.15 46.19 9.93L46.19 9.93L46.19 9.93Q46.96 6.72 46.96 6.28L46.96 6.28L46.96 6.28Q46.96 5.84 46.80 5.49L46.80 5.49L46.80 5.49Q46.63 5.14 46.47 4.96L46.47 4.96L46.31 4.79L46.35 4.47L46.35 4.47Q46.76 4.37 47.98 4.24L47.98 4.24L47.98 4.24Q49.21 4.12 50.11 4.12L50.11 4.12L50.11 4.12Q52.26 4.12 53.30 5.01L53.30 5.01L53.30 5.01Q54.35 5.89 54.35 7.85L54.35 7.85L54.35 7.85Q54.35 9.38 53.80 10.82L53.80 10.82L53.80 10.82Q53.24 12.25 52.12 13.24L52.12 13.24L52.12 13.24Q51.00 14.22 49.59 14.22ZM50.30 5.11L50.30 5.11L50.30 5.11Q50.05 5.11 49.76 5.15L49.76 5.15L49.76 5.15Q49.71 5.96 49.04 8.88L49.04 8.88L49.04 8.88Q48.37 11.80 48.22 12.88L48.22 12.88L48.22 12.88Q48.47 13.01 48.82 13.01L48.82 13.01L48.82 13.01Q49.56 13.01 50.14 12.33L50.14 12.33L50.14 12.33Q50.72 11.66 51.03 10.65L51.03 10.65L51.03 10.65Q51.63 8.61 51.63 6.94L51.63 6.94L51.63 6.94Q51.63 5.94 51.33 5.52L51.33 5.52L51.33 5.52Q51.03 5.11 50.30 5.11ZM54.66 11.52L54.66 11.52L54.66 11.52Q54.66 9.79 55.71 8.82L55.71 8.82L55.71 8.82Q56.77 7.85 58.32 7.85L58.32 7.85L58.32 7.85Q59.40 7.85 60.05 8.32L60.05 8.32L60.05 8.32Q60.70 8.79 60.70 9.58L60.70 9.58L60.70 9.58Q60.70 10.15 60.35 10.60L60.35 10.60L60.35 10.60Q60.00 11.05 59.50 11.28L59.50 11.28L59.50 11.28Q58.44 11.76 57.65 11.86L57.65 11.86L57.30 11.90L57.30 11.90Q57.46 12.82 58.23 12.82L58.23 12.82L58.23 12.82Q58.56 12.82 58.97 12.68L58.97 12.68L58.97 12.68Q59.37 12.53 59.61 12.38L59.61 12.38L59.85 12.24L60.30 12.84L60.30 12.84Q60.30 12.84 60.14 12.99L60.14 12.99L60.14 12.99Q60.06 13.08 59.74 13.32L59.74 13.32L59.74 13.32Q59.43 13.57 59.09 13.75L59.09 13.75L59.09 13.75Q58.74 13.93 58.21 14.08L58.21 14.08L58.21 14.08Q57.68 14.22 57.15 14.22L57.15 14.22L57.15 14.22Q55.96 14.22 55.31 13.53L55.31 13.53L55.31 13.53Q54.66 12.84 54.66 11.52ZM57.25 10.98L57.25 10.98Q57.65 10.92 58.06 10.31L58.06 10.31L58.06 10.31Q58.46 9.70 58.46 9.29L58.46 9.29L58.46 9.29Q58.46 8.88 58.23 8.88L58.23 8.88L58.23 8.88Q57.88 8.88 57.58 9.42L57.58 9.42L57.58 9.42Q57.29 9.97 57.25 10.98L57.25 10.98ZM61.17 12.46L61.17 12.46L61.35 9.53L61.35 9.53Q61.35 9.16 61.24 8.94L61.24 8.94L61.24 8.94Q61.14 8.72 60.82 8.33L60.82 8.33L60.87 8.12L60.87 8.12Q61.95 7.87 62.66 7.87L62.66 7.87L62.66 7.87Q63.38 7.87 63.66 8.20L63.66 8.20L63.66 8.20Q63.95 8.53 63.95 9.13L63.95 9.13L63.95 9.13Q63.95 9.73 63.73 10.89L63.73 10.89L63.73 10.89Q63.52 12.05 63.52 12.43L63.52 12.43L63.52 12.43Q63.52 12.80 63.73 12.80L63.73 12.80L63.73 12.80Q64.06 12.80 64.60 12.16L64.60 12.16L64.60 12.16Q65.14 11.52 65.31 10.91L65.31 10.91L64.27 9.91L64.27 9.91Q64.33 9.32 64.53 8.81L64.53 8.81L64.53 8.81Q64.72 8.30 64.88 8.09L64.88 8.09L65.04 7.87L65.04 7.87Q66.74 7.87 66.74 9.27L66.74 9.27L66.74 9.27Q66.74 10.18 66.19 11.32L66.19 11.32L66.19 11.32Q65.63 12.46 64.64 13.34L64.64 13.34L64.64 13.34Q63.64 14.22 62.58 14.22L62.58 14.22L62.58 14.22Q61.17 14.22 61.17 12.46ZM68.24 14.22L68.24 14.22L68.24 14.22Q67.65 14.22 67.33 13.90L67.33 13.90L67.33 13.90Q67.02 13.57 67.02 13.03L67.02 13.03L67.02 13.03Q67.02 12.49 67.44 12.10L67.44 12.10L67.44 12.10Q67.87 11.72 68.47 11.72L68.47 11.72L68.47 11.72Q69.06 11.72 69.38 12.03L69.38 12.03L69.38 12.03Q69.69 12.35 69.69 12.88L69.69 12.88L69.69 12.88Q69.69 13.41 69.27 13.82L69.27 13.82L69.27 13.82Q68.84 14.22 68.24 14.22Z"></path></g><defs data-v-fde0c5aa=""><!----></defs><g data-v-fde0c5aa="" id="192f72d4-af46-4e2e-b502-a2c770839ffd" stroke="none" fill="#ffffff" transform="matrix(1.9111411470991475,0,0,1.9111411470991475,55.39850775077352,28.190112002775614)"><path d="M39.6 68.87h3.22L59.4 29.5h-3.22L39.6 68.87zM66 29.5v4.64l15.13 15.03L66 64.21v4.63l19.8-19.67L66 29.5zM33 68.84v-4.63L17.87 49.17 33 34.14V29.5L13.2 49.17 33 68.84z"></path></g><!----></svg>